<svg width="289" height="85" viewBox="0 0 289 85" fill="none" xmlns="http://www.w3.org/2000/svg">
<path d="M31.9999 6.7624L31.9999 30.1881L11.7127 18.4752L31.9999 6.7624Z" fill="#4A82CB" stroke="white" stroke-width="0.2"/>
<path d="M31.9999 30.4309L31.9999 53.8565L11.7127 42.1437L31.9999 30.4309Z" fill="#283B81" stroke="white" stroke-width="0.2"/>
<path d="M52.2873 18.5964L52.2873 42.022L32.0001 30.3092L52.2873 18.5964Z" fill="#6ACEE7" stroke="white" stroke-width="0.2"/>
<path d="M11.7127 18.5964L11.7127 42.022L31.9999 30.3092L11.7127 18.5964Z" fill="#3F59B0" stroke="white" stroke-width="0.2"/>
<path d="M32.0001 6.7624L32.0001 30.1881L52.2873 18.4752L32.0001 6.7624Z" fill="#51AEE5" stroke="white" stroke-width="0.2"/>
<path d="M11.7127 42.2648L11.7127 65.6905L31.9999 53.9777L11.7127 42.2648Z" fill="#26316A" stroke="white" stroke-width="0.2"/>
<path d="M32.0001 30.4309L32.0001 53.8565L52.2873 42.1437L32.0001 30.4309Z" fill="#9FDFE9" stroke="white" stroke-width="0.2"/>
<path d="M31.9999 54.0993L31.9999 77.525L11.7127 65.8121L31.9999 54.0993Z" fill="#1E2248" stroke="white" stroke-width="0.2"/>
<path d="M85.8928 13.8C89.0608 13.8 91.5448 14.556 93.3448 16.068C95.1448 17.556 96.0448 19.632 96.0448 22.296C96.0448 24.936 95.1448 27.012 93.3448 28.524C91.5448 30.012 89.0608 30.756 85.8928 30.756H78.6928V39H76.8568V13.8H85.8928ZM85.8928 29.1C88.5808 29.1 90.6328 28.512 92.0488 27.336C93.4648 26.16 94.1728 24.48 94.1728 22.296C94.1728 20.112 93.4648 18.432 92.0488 17.256C90.6328 16.056 88.5808 15.456 85.8928 15.456H78.6928V29.1H85.8928ZM113.283 39.18C110.811 39.18 108.579 38.628 106.587 37.524C104.595 36.396 103.023 34.86 101.871 32.916C100.743 30.972 100.179 28.8 100.179 26.4C100.179 24 100.743 21.828 101.871 19.884C103.023 17.94 104.595 16.416 106.587 15.312C108.579 14.184 110.811 13.62 113.283 13.62C115.755 13.62 117.987 14.172 119.979 15.276C121.971 16.38 123.531 17.904 124.659 19.848C125.811 21.792 126.387 23.976 126.387 26.4C126.387 28.824 125.811 31.008 124.659 32.952C123.531 34.896 121.971 36.42 119.979 37.524C117.987 38.628 115.755 39.18 113.283 39.18ZM113.283 37.488C115.395 37.488 117.303 37.008 119.007 36.048C120.711 35.088 122.055 33.768 123.039 32.088C124.023 30.384 124.515 28.488 124.515 26.4C124.515 24.312 124.023 22.428 123.039 20.748C122.055 19.044 120.711 17.712 119.007 16.752C117.303 15.792 115.395 15.312 113.283 15.312C111.171 15.312 109.251 15.792 107.523 16.752C105.819 17.712 104.475 19.044 103.491 20.748C102.507 22.428 102.015 24.312 102.015 26.4C102.015 28.488 102.507 30.384 103.491 32.088C104.475 33.768 105.819 35.088 107.523 36.048C109.251 37.008 111.171 37.488 113.283 37.488ZM150.251 39L144.239 30.576C143.351 30.696 142.535 30.756 141.791 30.756H134.591V39H132.755V13.8H141.791C144.959 13.8 147.443 14.556 149.243 16.068C151.043 17.556 151.943 19.632 151.943 22.296C151.943 24.288 151.427 25.968 150.395 27.336C149.387 28.68 147.935 29.628 146.039 30.18L152.339 39H150.251ZM141.791 29.136C144.479 29.136 146.531 28.548 147.947 27.372C149.363 26.172 150.071 24.48 150.071 22.296C150.071 20.112 149.363 18.432 147.947 17.256C146.531 16.056 144.479 15.456 141.791 15.456H134.591V29.136H141.791ZM163.138 15.456H154.066V13.8H174.046V15.456H164.974V39H163.138V15.456ZM192.921 31.908H178.305L175.101 39H173.121L184.713 13.8H186.549L198.141 39H196.161L192.921 31.908ZM192.237 30.36L185.613 15.816L179.025 30.36H192.237ZM202.716 13.8H204.552V37.344H219.06V39H202.716V13.8ZM233.021 13.8H242.993C245.609 13.8 247.925 14.34 249.941 15.42C251.981 16.5 253.565 18 254.693 19.92C255.821 21.816 256.385 23.976 256.385 26.4C256.385 28.824 255.821 30.996 254.693 32.916C253.565 34.812 251.981 36.3 249.941 37.38C247.925 38.46 245.609 39 242.993 39H233.021V13.8ZM242.849 37.344C245.177 37.344 247.229 36.888 249.005 35.976C250.781 35.04 252.149 33.744 253.109 32.088C254.069 30.432 254.549 28.536 254.549 26.4C254.549 24.264 254.069 22.368 253.109 20.712C252.149 19.056 250.781 17.772 249.005 16.86C247.229 15.924 245.177 15.456 242.849 15.456H234.857V37.344H242.849ZM273.455 39.18C270.983 39.18 268.751 38.628 266.759 37.524C264.767 36.396 263.195 34.86 262.043 32.916C260.915 30.972 260.351 28.8 260.351 26.4C260.351 24 260.915 21.828 262.043 19.884C263.195 17.94 264.767 16.416 266.759 15.312C268.751 14.184 270.983 13.62 273.455 13.62C275.927 13.62 278.159 14.172 280.151 15.276C282.143 16.38 283.703 17.904 284.831 19.848C285.983 21.792 286.559 23.976 286.559 26.4C286.559 28.824 285.983 31.008 284.831 32.952C283.703 34.896 282.143 36.42 280.151 37.524C278.159 38.628 275.927 39.18 273.455 39.18ZM273.455 37.488C275.567 37.488 277.475 37.008 279.179 36.048C280.883 35.088 282.227 33.768 283.211 32.088C284.195 30.384 284.687 28.488 284.687 26.4C284.687 24.312 284.195 22.428 283.211 20.748C282.227 19.044 280.883 17.712 279.179 16.752C277.475 15.792 275.567 15.312 273.455 15.312C271.343 15.312 269.423 15.792 267.695 16.752C265.991 17.712 264.647 19.044 263.663 20.748C262.679 22.428 262.187 24.312 262.187 26.4C262.187 28.488 262.679 30.384 263.663 32.088C264.647 33.768 265.991 35.088 267.695 36.048C269.423 37.008 271.343 37.488 273.455 37.488Z" fill="#3B3B3B"/>
<path d="M86.7324 74.348C84.6637 74.348 82.7884 73.9033 81.1064 73.014C79.4437 72.1053 78.129 70.8583 77.1624 69.273C76.215 67.6683 75.7414 65.8607 75.7414 63.85C75.7414 61.8393 76.215 60.0413 77.1624 58.456C78.129 56.8513 79.4437 55.6043 81.1064 54.715C82.7884 53.8063 84.6734 53.352 86.7614 53.352C88.5207 53.352 90.106 53.6613 91.5174 54.28C92.948 54.8987 94.1467 55.788 95.1134 56.948L92.0974 59.732C90.7247 58.1467 89.0234 57.354 86.9934 57.354C85.7367 57.354 84.6154 57.6343 83.6294 58.195C82.6434 58.7363 81.87 59.5 81.3094 60.486C80.768 61.472 80.4974 62.5933 80.4974 63.85C80.4974 65.1067 80.768 66.228 81.3094 67.214C81.87 68.2 82.6434 68.9733 83.6294 69.534C84.6154 70.0753 85.7367 70.346 86.9934 70.346C89.0234 70.346 90.7247 69.5437 92.0974 67.939L95.1134 70.723C94.1467 71.9023 92.948 72.8013 91.5174 73.42C90.0867 74.0387 88.4917 74.348 86.7324 74.348ZM107.692 74.348C105.585 74.348 103.68 73.8937 101.979 72.985C100.297 72.0763 98.9728 70.8293 98.0061 69.244C97.0588 67.6393 96.5851 65.8413 96.5851 63.85C96.5851 61.8587 97.0588 60.0703 98.0061 58.485C98.9728 56.8803 100.297 55.6237 101.979 54.715C103.68 53.8063 105.585 53.352 107.692 53.352C109.799 53.352 111.694 53.8063 113.376 54.715C115.058 55.6237 116.382 56.8803 117.349 58.485C118.316 60.0703 118.799 61.8587 118.799 63.85C118.799 65.8413 118.316 67.6393 117.349 69.244C116.382 70.8293 115.058 72.0763 113.376 72.985C111.694 73.8937 109.799 74.348 107.692 74.348ZM107.692 70.346C108.891 70.346 109.973 70.0753 110.94 69.534C111.907 68.9733 112.661 68.2 113.202 67.214C113.763 66.228 114.043 65.1067 114.043 63.85C114.043 62.5933 113.763 61.472 113.202 60.486C112.661 59.5 111.907 58.7363 110.94 58.195C109.973 57.6343 108.891 57.354 107.692 57.354C106.493 57.354 105.411 57.6343 104.444 58.195C103.477 58.7363 102.714 59.5 102.153 60.486C101.612 61.472 101.341 62.5933 101.341 63.85C101.341 65.1067 101.612 66.228 102.153 67.214C102.714 68.2 103.477 68.9733 104.444 69.534C105.411 70.0753 106.493 70.346 107.692 70.346ZM140.948 53.7V74H137.091L126.97 61.675V74H122.33V53.7H126.216L136.308 66.025V53.7H140.948ZM145.751 53.7H154.973C157.177 53.7 159.12 54.1253 160.802 54.976C162.503 55.8073 163.818 56.9867 164.746 58.514C165.693 60.0413 166.167 61.82 166.167 63.85C166.167 65.88 165.693 67.6587 164.746 69.186C163.818 70.7133 162.503 71.9023 160.802 72.753C159.12 73.5843 157.177 74 154.973 74H145.751V53.7ZM154.741 70.143C156.771 70.143 158.385 69.5823 159.584 68.461C160.802 67.3203 161.411 65.7833 161.411 63.85C161.411 61.9167 160.802 60.3893 159.584 59.268C158.385 58.1273 156.771 57.557 154.741 57.557H150.449V70.143H154.741ZM179.541 74.348C177.433 74.348 175.529 73.8937 173.828 72.985C172.146 72.0763 170.821 70.8293 169.855 69.244C168.907 67.6393 168.434 65.8413 168.434 63.85C168.434 61.8587 168.907 60.0703 169.855 58.485C170.821 56.8803 172.146 55.6237 173.828 54.715C175.529 53.8063 177.433 53.352 179.541 53.352C181.648 53.352 183.543 53.8063 185.225 54.715C186.907 55.6237 188.231 56.8803 189.198 58.485C190.164 60.0703 190.648 61.8587 190.648 63.85C190.648 65.8413 190.164 67.6393 189.198 69.244C188.231 70.8293 186.907 72.0763 185.225 72.985C183.543 73.8937 181.648 74.348 179.541 74.348ZM179.541 70.346C180.739 70.346 181.822 70.0753 182.789 69.534C183.755 68.9733 184.509 68.2 185.051 67.214C185.611 66.228 185.892 65.1067 185.892 63.85C185.892 62.5933 185.611 61.472 185.051 60.486C184.509 59.5 183.755 58.7363 182.789 58.195C181.822 57.6343 180.739 57.354 179.541 57.354C178.342 57.354 177.259 57.6343 176.293 58.195C175.326 58.7363 174.562 59.5 174.002 60.486C173.46 61.472 173.19 62.5933 173.19 63.85C173.19 65.1067 173.46 66.228 174.002 67.214C174.562 68.2 175.326 68.9733 176.293 69.534C177.259 70.0753 178.342 70.346 179.541 70.346ZM212.651 74L212.622 61.82L206.648 71.854H204.531L198.586 62.081V74H194.178V53.7H198.064L205.662 66.315L213.144 53.7H217.001L217.059 74H212.651ZM221.876 53.7H226.574V74H221.876V53.7ZM225.501 47.871H230.373L225.124 52.047H221.586L225.501 47.871ZM250.009 53.7V74H246.152L236.031 61.675V74H231.391V53.7H235.277L245.369 66.025V53.7H250.009ZM254.812 53.7H259.51V74H254.812V53.7ZM274.159 74.348C272.052 74.348 270.147 73.8937 268.446 72.985C266.764 72.0763 265.44 70.8293 264.473 69.244C263.526 67.6393 263.052 65.8413 263.052 63.85C263.052 61.8587 263.526 60.0703 264.473 58.485C265.44 56.8803 266.764 55.6237 268.446 54.715C270.147 53.8063 272.052 53.352 274.159 53.352C276.266 53.352 278.161 53.8063 279.843 54.715C281.525 55.6237 282.849 56.8803 283.816 58.485C284.783 60.0703 285.266 61.8587 285.266 63.85C285.266 65.8413 284.783 67.6393 283.816 69.244C282.849 70.8293 281.525 72.0763 279.843 72.985C278.161 73.8937 276.266 74.348 274.159 74.348ZM274.159 70.346C275.358 70.346 276.44 70.0753 277.407 69.534C278.374 68.9733 279.128 68.2 279.669 67.214C280.23 66.228 280.51 65.1067 280.51 63.85C280.51 62.5933 280.23 61.472 279.669 60.486C279.128 59.5 278.374 58.7363 277.407 58.195C276.44 57.6343 275.358 57.354 274.159 57.354C272.96 57.354 271.878 57.6343 270.911 58.195C269.944 58.7363 269.181 59.5 268.62 60.486C268.079 61.472 267.808 62.5933 267.808 63.85C267.808 65.1067 268.079 66.228 268.62 67.214C269.181 68.2 269.944 68.9733 270.911 69.534C271.878 70.0753 272.96 70.346 274.159 70.346Z" fill="#1E2248"/>
</svg>
